<svg width="1680" height="929" xmlns="http://www.w3.org/2000/svg"><path d="M-18.248-77.988l-85.915 195.46 226.072-24.767z" fill="#f7f5fb" stroke="#f7f5fb"/><path d="M-18.248-77.988l140.157 170.693-19.219-226.894z" fill="#f5f3f9" stroke="#f5f3f9"/><path d="M102.69-134.189l19.219 226.894 126.64-35.069z" fill="#edeef6" stroke="#edeef6"/><path d="M102.69-134.189l145.859 191.825 3.178-166.855z" fill="#eaecf5" stroke="#eaecf5"/><path d="M102.69-134.189l149.037 24.969 317.145-20.665z" fill="#e1e6f1" stroke="#e1e6f1"/><path d="M102.69-134.189l466.182 4.304 611.63-.347z" fill="#bad7e9" stroke="#bad7e9"/><path d="M251.727-109.22l-3.178 166.855 157.956-105.722z" fill="#e1e6f1" stroke="#e1e6f1"/><path d="M251.727-109.22l154.778 61.133 162.367-81.798z" fill="#d5e1ee" stroke="#d5e1ee"/><path d="M406.505-48.086l-157.956 105.722 105.897 20.064z" fill="#dce3f0" stroke="#dce3f0"/><path d="M406.505-48.086l-52.059 125.787 179.915 56.485z" fill="#cddeee" stroke="#cddeee"/><path d="M406.505-48.086l127.856 182.272 34.511-264.07z" fill="#c9dcec" stroke="#c9dcec"/><path d="M568.872-129.884l-34.511 264.07 90.785-3.856z" fill="#bcd7ea" stroke="#bcd7ea"/><path d="M568.872-129.884l56.274 260.214 109.42-187.114z" fill="#b7d6e8" stroke="#b7d6e8"/><path d="M568.872-129.884l165.694 73.1 92.534-52.551z" fill="#afd3e4" stroke="#afd3e4"/><path d="M568.872-129.884l258.228 20.549 353.402-20.896z" fill="#9ecdd8" stroke="#9ecdd8"/><path d="M734.566-56.785l-109.42 187.114 229.124-23.259z" fill="#a7cfe2" stroke="#a7cfe2"/><path d="M734.566-56.785l119.704 163.855-27.169-216.406z" fill="#a4cfdd" stroke="#a4cfdd"/><path d="M827.1-109.335l27.169 216.406 64.135-26.373z" fill="#9cccd8" stroke="#9cccd8"/><path d="M827.1-109.335l91.304 190.033 13.325-168.376z" fill="#9bccd6" stroke="#9bccd6"/><path d="M827.1-109.335l104.63 21.657 248.772-42.554z" fill="#91c9cf" stroke="#91c9cf"/><path d="M931.73-87.678l-13.325 168.376 258.065-52.22z" fill="#8dc7cc" stroke="#8dc7cc"/><path d="M931.73-87.678l244.739 116.156 4.033-158.71z" fill="#8ac3c4" stroke="#8ac3c4"/><path d="M1180.502-130.232l-4.033 158.71 77.613-136.19z" fill="#86bdba" stroke="#86bdba"/><path d="M1180.502-130.232l73.58 22.519 125.781 5.907z" fill="#83bab3" stroke="#83bab3"/><path d="M1180.502-130.232l199.361 28.427 201.538-25.216z" fill="#80b4a9" stroke="#80b4a9"/><path d="M1254.082-107.712l-77.613 136.19 210.938 14.815z" fill="#83bab3" stroke="#83bab3"/><path d="M1254.082-107.712l133.325 151.005-7.545-145.098z" fill="#80b6ad" stroke="#80b6ad"/><path d="M1379.863-101.805l7.545 145.098 193.994-170.314z" fill="#80b0a2" stroke="#80b0a2"/><path d="M1581.401-127.021l-193.994 170.314 146.723 84.332z" fill="#7fad9d" stroke="#7fad9d"/><path d="M1581.401-127.021l-47.271 254.645 210.445-32.526z" fill="#7da592" stroke="#7da592"/><path d="M1581.401-127.021l163.175 222.119 39.202-138.393z" fill="#80a38a" stroke="#80a38a"/><path d="M1581.401-127.021l202.377 83.726 71.081-13.62z" fill="#80a187" stroke="#80a187"/><path d="M1783.778-43.295l-39.202 138.393 77.085-47.882z" fill="#7d9d82" stroke="#7d9d82"/><path d="M1783.778-43.295l37.883 90.511 33.198-104.131z" fill="#809c80" stroke="#809c80"/><path d="M1854.859-56.915l-33.198 104.131 21.909 206.929z" fill="#799880" stroke="#799880"/><path d="M1854.859-56.915l-11.289 311.06 49.008 241.357z" fill="#648e7f" stroke="#648e7f"/><path d="M-104.163 117.472l24.202 905.208-15.82-700.913z" fill="#a2d9e6" stroke="#a2d9e6"/><path d="M-104.163 117.472l8.382 204.295 37.863-103.517z" fill="#e7f1fe" stroke="#e7f1fe"/><path d="M-104.163 117.472l46.245 100.778 179.827-125.545z" fill="#f0f2fc" stroke="#f0f2fc"/><path d="M121.909 92.705l-179.827 125.545 151.585 61.24z" fill="#e4ecfa" stroke="#e4ecfa"/><path d="M121.909 92.705l-28.243 186.785 182.091-22.906z" fill="#d7e4f5" stroke="#d7e4f5"/><path d="M121.909 92.705l153.848 163.879-27.209-198.949z" fill="#dde6f4" stroke="#dde6f4"/><path d="M248.549 57.636l27.209 198.949 62.04-23.212z" fill="#d4e0f2" stroke="#d4e0f2"/><path d="M248.549 57.636l89.248 175.737 16.649-155.673z" fill="#d6e1f1" stroke="#d6e1f1"/><path d="M354.446 77.7l-16.649 155.673 196.564-99.187z" fill="#c9dbee" stroke="#c9dbee"/><path d="M534.361 134.186l-196.564 99.187 167.477 38.368z" fill="#b8d4ec" stroke="#b8d4ec"/><path d="M534.361 134.186l-29.086 137.555 119.871-141.412z" fill="#b4d3ea" stroke="#b4d3ea"/><path d="M625.146 130.329l-119.871 141.412 211.874-20.887z" fill="#a3cce8" stroke="#a3cce8"/><path d="M625.146 130.329l92.003 120.525 137.121-143.784z" fill="#a0cce2" stroke="#a0cce2"/><path d="M854.269 107.071l-137.121 143.784 102.011 30.855z" fill="#8fc5dd" stroke="#8fc5dd"/><path d="M854.269 107.071l-35.111 174.639 191.906-58.417z" fill="#86c2d5" stroke="#86c2d5"/><path d="M854.269 107.071l156.795 116.222-92.661-142.594z" fill="#8cc5d3" stroke="#8cc5d3"/><path d="M918.404 80.698l92.661 142.594 165.404-194.814z" fill="#84c2ca" stroke="#84c2ca"/><path d="M1176.469 28.478l-165.404 194.814 123.602 7.296z" fill="#7dbcc3" stroke="#7dbcc3"/><path d="M1176.469 28.478l-41.803 202.11 128.641-100.124z" fill="#7cb9bb" stroke="#7cb9bb"/><path d="M1176.469 28.478l86.838 101.986 124.1-87.171z" fill="#7db7b3" stroke="#7db7b3"/><path d="M1263.307 130.464l-128.641 100.124 122.747.327z" fill="#73b4b8" stroke="#73b4b8"/><path d="M1263.307 130.464l-5.893 100.452 131.538-45.617z" fill="#73b0b0" stroke="#73b0b0"/><path d="M1263.307 130.464l125.644 54.835-1.544-142.006z" fill="#77b1ac" stroke="#77b1ac"/><path d="M1387.408 43.292l1.544 142.006 145.179-57.674z" fill="#76aca3" stroke="#76aca3"/><path d="M1534.13 127.624l-145.179 57.674 95.427 175.318z" fill="#66a49f" stroke="#66a49f"/><path d="M1534.13 127.624l-49.752 232.992 128.789-153.431z" fill="#649f98" stroke="#649f98"/><path d="M1534.13 127.624l79.037 79.561 131.409-112.088z" fill="#74a091" stroke="#74a091"/><path d="M1744.576 95.098l-131.409 112.088 144.473 67.256z" fill="#6f9a8a" stroke="#6f9a8a"/><path d="M1744.576 95.098l13.065 179.343 85.93-20.296z" fill="#6b9482" stroke="#6b9482"/><path d="M1744.576 95.098l98.994 159.047-21.909-206.929z" fill="#759881" stroke="#759881"/><path d="M-57.918 218.251l-37.863 103.517 189.447-42.277z" fill="#d5e8fa" stroke="#d5e8fa"/><path d="M93.666 279.49l-189.447 42.277 185.672 102.587z" fill="#bedef7" stroke="#bedef7"/><path d="M93.666 279.49l-3.775 144.864 86.163-47.712z" fill="#b2d6f3" stroke="#b2d6f3"/><path d="M93.666 279.49l82.388 97.153 99.703-120.058z" fill="#bcd9f3" stroke="#bcd9f3"/><path d="M275.757 256.585l-99.703 120.058 214.627-2.758z" fill="#abd0ef" stroke="#abd0ef"/><path d="M275.757 256.585l114.924 117.3-52.884-140.512z" fill="#b3d2ee" stroke="#b3d2ee"/><path d="M337.797 233.373l52.884 140.512 114.593-102.144z" fill="#a8ceec" stroke="#a8ceec"/><path d="M505.274 271.741l-114.593 102.144 145.514-14.982z" fill="#94c7e9" stroke="#94c7e9"/><path d="M505.274 271.741l30.921 87.162 108.339-13.67z" fill="#8cc3e7" stroke="#8cc3e7"/><path d="M505.274 271.741l139.26 73.491 72.614-94.378z" fill="#8ec4e7" stroke="#8ec4e7"/><path d="M717.148 250.854l-72.614 94.378 174.518 50.354z" fill="#77bce0" stroke="#77bce0"/><path d="M717.148 250.854l101.904 144.732.107-113.877z" fill="#76bcdc" stroke="#76bcdc"/><path d="M819.159 281.709l-.107 113.877 115.548 5.546z" fill="#60b4d5" stroke="#60b4d5"/><path d="M819.159 281.709l115.442 119.423 76.464-177.84z" fill="#68b7d1" stroke="#68b7d1"/><path d="M1011.065 223.292l-76.464 177.84 207.289-51.031z" fill="#58b1c7" stroke="#58b1c7"/><path d="M1011.065 223.292l130.825 126.809-7.223-119.513z" fill="#65b3c2" stroke="#65b3c2"/><path d="M1134.666 230.588l7.223 119.513 115.524-119.186z" fill="#60aeba" stroke="#60aeba"/><path d="M1257.414 230.916l-115.524 119.186 100.94 42.476z" fill="#50a7b6" stroke="#50a7b6"/><path d="M1257.414 230.916l-14.584 161.662 241.548-31.961z" fill="#4ba0ab" stroke="#4ba0ab"/><path d="M1257.414 230.916l226.964 129.701-95.427-175.318z" fill="#5da5a8" stroke="#5da5a8"/><path d="M1613.167 207.185l-128.789 153.431 71.085 21.041z" fill="#4d9696" stroke="#4d9696"/><path d="M1613.167 207.185l-57.704 174.473 157.242-24.332z" fill="#4d928e" stroke="#4d928e"/><path d="M1613.167 207.185l99.538 150.14 44.935-82.884z" fill="#579189" stroke="#579189"/><path d="M1757.64 274.441l-44.935 82.884 117.199 11.157z" fill="#488881" stroke="#488881"/><path d="M1757.64 274.441l72.264 94.042 13.666-114.338z" fill="#52897d" stroke="#52897d"/><path d="M1843.57 254.145l-13.666 114.338 62.674 127.019z" fill="#3d7f7c" stroke="#3d7f7c"/><path d="M-95.781 321.768l15.82 700.913 44.321-300.93z" fill="#91c3be" stroke="#91c3be"/><path d="M-95.781 321.768l60.141 399.983 11.246-199.261z" fill="#9ad4de" stroke="#9ad4de"/><path d="M-95.781 321.768l71.387 200.722 114.285-98.135z" fill="#aed9ef" stroke="#aed9ef"/><path d="M89.891 424.355l-114.285 98.135 64.675 11.593z" fill="#99d1e1" stroke="#99d1e1"/><path d="M89.891 424.355l-49.611 109.728 187.725-43.828z" fill="#94cde0" stroke="#94cde0"/><path d="M89.891 424.355l138.114 65.9-51.951-113.612z" fill="#9dcee7" stroke="#9dcee7"/><path d="M176.054 376.643l51.951 113.612 162.676-116.37z" fill="#98cae7" stroke="#98cae7"/><path d="M390.682 373.885l-162.676 116.37 169.192 30.115z" fill="#86c2dd" stroke="#86c2dd"/><path d="M390.682 373.885l6.516 146.485 133.258-25.98z" fill="#7abdd9" stroke="#7abdd9"/><path d="M390.682 373.885l139.774 120.505 5.739-135.487z" fill="#80bfe2" stroke="#80bfe2"/><path d="M536.195 358.903l-5.739 135.487 114.078-149.157z" fill="#78bce1" stroke="#78bce1"/><path d="M644.534 345.232l-114.078 149.157 117.536 47.127z" fill="#64b5d5" stroke="#64b5d5"/><path d="M644.534 345.232l3.457 196.284 171.061-145.93z" fill="#61b4d7" stroke="#61b4d7"/><path d="M819.052 395.586l-171.061 145.93 185.144-17.457z" fill="#4badc8" stroke="#4badc8"/><path d="M819.052 395.586l14.084 128.473 101.464-122.927z" fill="#4cadc8" stroke="#4cadc8"/><path d="M934.601 401.132l-101.464 122.927 123.006-55.414z" fill="#41a9c0" stroke="#41a9c0"/><path d="M934.601 401.132l21.541 67.512 185.748-118.543z" fill="#43aac2" stroke="#43aac2"/><path d="M1141.89 350.101l-185.748 118.543 223.467 101.021z" fill="#33a1b0" stroke="#33a1b0"/><path d="M1141.89 350.101l37.719 219.565 49.375-63.609z" fill="#2c9ba6" stroke="#2c9ba6"/><path d="M1141.89 350.101l87.094 155.956 13.846-113.48z" fill="#399fae" stroke="#399fae"/><path d="M1242.83 392.578l-13.846 113.48 234.526 23.722z" fill="#279499" stroke="#279499"/><path d="M1242.83 392.578l220.68 137.202 20.868-169.163z" fill="#309399" stroke="#309399"/><path d="M1484.378 360.616l-20.868 169.163 91.954-148.121z" fill="#318e90" stroke="#318e90"/><path d="M1555.463 381.658l-91.954 148.121 106.588 50.451z" fill="#208781" stroke="#208781"/><path d="M1555.463 381.658l14.635 198.572 156.469-95.774z" fill="#24847b" stroke="#24847b"/><path d="M1555.463 381.658l171.103 102.798-13.862-127.13z" fill="#358783" stroke="#358783"/><path d="M1712.705 357.326l13.862 127.13 103.338-115.973z" fill="#36827b" stroke="#36827b"/><path d="M1829.904 368.483l-103.338 115.973 166.012 11.047z" fill="#2b7b6e" stroke="#2b7b6e"/><path d="M-24.394 522.489l-11.246 199.261 96.557-102.554z" fill="#8dc6ca" stroke="#8dc6ca"/><path d="M-24.394 522.489l85.311 96.707-20.636-85.114z" fill="#8bccd6" stroke="#8bccd6"/><path d="M40.281 534.082l20.636 85.114 167.088-128.942z" fill="#86c8d5" stroke="#86c8d5"/><path d="M228.006 490.255l-167.088 128.942 211.139-3.725z" fill="#7dc1cd" stroke="#7dc1cd"/><path d="M228.006 490.255l44.051 125.217 125.141-95.102z" fill="#77becf" stroke="#77becf"/><path d="M397.198 520.37l-125.141 95.102 151.722 10.292z" fill="#6db6c5" stroke="#6db6c5"/><path d="M397.198 520.37l26.581 105.394 106.678-131.375z" fill="#64b6cb" stroke="#64b6cb"/><path d="M530.456 494.39l-106.678 131.375 62.744 27.705z" fill="#5eb0c1" stroke="#5eb0c1"/><path d="M530.456 494.39l-43.933 159.08 161.469-111.953z" fill="#54b0c5" stroke="#54b0c5"/><path d="M647.992 541.516l-161.469 111.953 231.716 49.83z" fill="#4ca5b5" stroke="#4ca5b5"/><path d="M647.992 541.516l70.247 161.783 114.897-179.241z" fill="#3ea5b7" stroke="#3ea5b7"/><path d="M833.136 524.059l-114.897 179.241 162.262-72.105z" fill="#369fab" stroke="#369fab"/><path d="M833.136 524.059l47.365 107.136 75.641-162.55z" fill="#31a4b4" stroke="#31a4b4"/><path d="M956.142 468.645l-75.641 162.55 56.882 29.454z" fill="#299ea8" stroke="#299ea8"/><path d="M956.142 468.645l-18.758 192.004 143.294 1.859z" fill="#229aa1" stroke="#229aa1"/><path d="M956.142 468.645l124.536 193.863 98.931-92.842z" fill="#1d9aa0" stroke="#1d9aa0"/><path d="M1179.609 569.666l-98.931 92.842 148.877-23.223z" fill="#1a8e8b" stroke="#1a8e8b"/><path d="M1179.609 569.666l49.946 69.619-.572-133.227z" fill="#189291" stroke="#189291"/><path d="M1228.983 506.057l.572 133.227 233.955-109.505z" fill="#148e8b" stroke="#148e8b"/><path d="M1463.51 529.779l-233.955 109.505 230.935 62.156z" fill="#128376" stroke="#128376"/><path d="M1463.51 529.779l-3.019 171.661 109.608-121.21z" fill="#127e70" stroke="#127e70"/><path d="M1570.098 580.23l-109.608 121.21 133.646-3.769z" fill="#127660" stroke="#127660"/><path d="M1570.098 580.23l24.039 117.441 167.103 24.723z" fill="#127055" stroke="#127055"/><path d="M1570.098 580.23l191.141 142.164-34.672-237.939z" fill="#12755f" stroke="#12755f"/><path d="M1726.567 484.456l34.672 237.939 116.328-61.584z" fill="#126d50" stroke="#126d50"/><path d="M1726.567 484.456l151 176.355 15.012-165.308z" fill="#14735d" stroke="#14735d"/><path d="M1892.579 495.502l-15.012 165.308 12.475 108.48z" fill="#12654a" stroke="#12654a"/><path d="M1892.579 495.502l-2.537 273.789 35.534 258.758z" fill="#125631" stroke="#125631"/><path d="M-35.64 721.75l-44.321 300.93 36.223-141.751z" fill="#91ac97" stroke="#91ac97"/><path d="M-35.64 721.75l-8.098 159.179 71.674-10.202z" fill="#8eb0a1" stroke="#8eb0a1"/><path d="M-35.64 721.75l63.576 148.977 32.981-251.531z" fill="#8bb8b1" stroke="#8bb8b1"/><path d="M60.917 619.197l-32.981 251.531 208.839-35.763z" fill="#84afa7" stroke="#84afa7"/><path d="M60.917 619.197l175.858 215.767 35.281-219.492z" fill="#7db4b6" stroke="#7db4b6"/><path d="M272.056 615.472l-35.281 219.492 167.908-22.298z" fill="#73a6a4" stroke="#73a6a4"/><path d="M272.056 615.472l132.627 197.194 19.095-186.901z" fill="#6cabb1" stroke="#6cabb1"/><path d="M423.778 625.764l-19.095 186.901 81.84-159.196z" fill="#63a6ad" stroke="#63a6ad"/><path d="M486.523 653.469l-81.84 159.196 92.967 50.598z" fill="#609b9b" stroke="#609b9b"/><path d="M486.523 653.469l11.127 209.795 136.298-38.559z" fill="#569799" stroke="#569799"/><path d="M486.523 653.469l147.425 171.236 84.291-121.406z" fill="#4d9aa2" stroke="#4d9aa2"/><path d="M718.239 703.3l-84.291 121.406 209.458-14.574z" fill="#3f8f90" stroke="#3f8f90"/><path d="M718.239 703.3l125.167 106.832 37.095-178.937z" fill="#359397" stroke="#359397"/><path d="M880.501 631.195l-37.095 178.937 93.978-149.482z" fill="#2d9294" stroke="#2d9294"/><path d="M937.384 660.649l-93.978 149.482 114.034 36.964z" fill="#2a8983" stroke="#2a8983"/><path d="M937.384 660.649l20.057 186.446 123.238-184.587z" fill="#228c87" stroke="#228c87"/><path d="M1080.678 662.508l-123.238 184.587 214.026-67.117z" fill="#1d8378" stroke="#1d8378"/><path d="M1080.678 662.508l90.788 117.47 58.089-140.694z" fill="#1a867d" stroke="#1a867d"/><path d="M1229.555 639.285l-58.089 140.694 46.713-6.216z" fill="#188071" stroke="#188071"/><path d="M1229.555 639.285l-11.376 134.478 168.364 37.195z" fill="#157a69" stroke="#157a69"/><path d="M1229.555 639.285l156.988 171.673 73.948-109.518z" fill="#127966" stroke="#127966"/><path d="M1460.49 701.44l-73.948 109.518 158.45 69.562z" fill="#126a4b" stroke="#126a4b"/><path d="M1460.49 701.44l84.502 179.079 49.144-182.849z" fill="#126b4c" stroke="#126b4c"/><path d="M1594.137 697.671l-49.144 182.849 214.533 3.538z" fill="#125e36" stroke="#125e36"/><path d="M1594.137 697.671l165.389 186.386 1.714-161.663z" fill="#12603a" stroke="#12603a"/><path d="M1761.239 722.394l-1.714 161.663 130.516-114.766z" fill="#12592c" stroke="#12592c"/><path d="M1761.239 722.394l128.803 46.897-12.475-108.48z" fill="#125f3b" stroke="#125f3b"/><path d="M-43.738 880.929l-36.223 141.751 107.897-151.953z" fill="#8fa58d" stroke="#8fa58d"/><path d="M27.936 870.727l-107.897 151.953 205.621 8.686z" fill="#8b9c80" stroke="#8b9c80"/><path d="M27.936 870.727l97.724 160.639 134.352-97.016z" fill="#819983" stroke="#819983"/><path d="M27.936 870.727l232.076 63.624-23.237-99.387z" fill="#7e9e8f" stroke="#7e9e8f"/><path d="M236.775 834.964l23.237 99.387 144.671-121.685z" fill="#739a8f" stroke="#739a8f"/><path d="M404.683 812.666l-144.671 121.685 154.737 11.028z" fill="#6d9286" stroke="#6d9286"/><path d="M404.683 812.666l10.066 132.713 82.901-82.115z" fill="#639188" stroke="#639188"/><path d="M497.65 863.264l-82.901 82.115 160.589 55.674z" fill="#5c877a" stroke="#5c877a"/><path d="M497.65 863.264l77.688 137.789 58.61-176.347z" fill="#528980" stroke="#528980"/><path d="M633.948 824.705l-58.61 176.347 143.119-82.881z" fill="#49837b" stroke="#49837b"/><path d="M633.948 824.705l84.509 93.466 124.949-108.04z" fill="#3f8782" stroke="#3f8782"/><path d="M843.406 810.131l-124.949 108.04 66.139 114.458z" fill="#397d70" stroke="#397d70"/><path d="M843.406 810.131l-58.81 222.498 172.844-185.534z" fill="#307c6e" stroke="#307c6e"/><path d="M957.44 847.095l-172.844 185.534 138.451 63.01z" fill="#2d7058" stroke="#2d7058"/><path d="M957.44 847.095l-34.393 248.544 108.19-179.264z" fill="#24725a" stroke="#24725a"/><path d="M957.44 847.095l73.797 69.28 140.229-136.397z" fill="#1e7a68" stroke="#1e7a68"/><path d="M1171.466 779.978l-140.229 136.397 113.779 37.833z" fill="#1b735b" stroke="#1b735b"/><path d="M1171.466 779.978l-26.45 174.23 113.454 5.116z" fill="#186d51" stroke="#186d51"/><path d="M1171.466 779.978l87.004 179.346-40.29-185.561z" fill="#17735a" stroke="#17735a"/><path d="M1218.179 773.763l40.29 185.561 128.073-148.366z" fill="#156e52" stroke="#156e52"/><path d="M1386.543 810.958l-128.073 148.366 143.873-25.385z" fill="#126441" stroke="#126441"/><path d="M1386.543 810.958l15.799 122.981 142.651-53.419z" fill="#12623d" stroke="#12623d"/><path d="M1544.993 880.52l-142.651 53.419 194.625 18.854z" fill="#12592d" stroke="#12592d"/><path d="M1544.993 880.52l51.974 72.273 162.559-68.735z" fill="#125425" stroke="#125425"/><path d="M1759.526 884.057l-162.559 68.735 168.347-16.943z" fill="#124e1a" stroke="#124e1a"/><path d="M1759.526 884.057l5.789 51.793 124.728-166.559z" fill="#12501d" stroke="#12501d"/><path d="M1890.042 769.291l-124.728 166.559 160.262 92.199z" fill="#124813" stroke="#124813"/><path d="M-79.961 1022.681l12.49 76.682 150.31-7.393z" fill="#8f937c" stroke="#8f937c"/><path d="M-79.961 1022.681l162.8 69.289 42.82-60.603z" fill="#89927a" stroke="#89927a"/><path d="M125.66 1031.367l-42.82 60.603 196.659-3.331z" fill="#7f8976" stroke="#7f8976"/><path d="M125.66 1031.367l153.839 57.272-19.487-154.288z" fill="#7a8c74" stroke="#7a8c74"/><path d="M260.012 934.351l19.487 154.288 135.25-143.26z" fill="#728a74" stroke="#728a74"/><path d="M414.749 945.379l-135.25 143.26 107.88 24.862z" fill="#6d8170" stroke="#6d8170"/><path d="M414.749 945.379l-27.371 168.122 122.689 14.542z" fill="#637b6e" stroke="#637b6e"/><path d="M414.749 945.379l95.319 182.663 65.27-126.99z" fill="#5b7d6c" stroke="#5b7d6c"/><path d="M575.338 1001.053l-65.27 126.99 192.669 55.923z" fill="#4f6f6a" stroke="#4f6f6a"/><path d="M575.338 1001.053l127.399 182.913 81.86-151.336z" fill="#446f66" stroke="#446f66"/><path d="M575.338 1001.053l209.258 31.577-66.139-114.458z" fill="#43786a" stroke="#43786a"/><path d="M784.596 1032.629l-81.86 151.336 109.01-74.498z" fill="#3b6760" stroke="#3b6760"/><path d="M784.596 1032.629l27.15 76.838 111.301-13.828z" fill="#33685a" stroke="#33685a"/><path d="M1031.237 916.376l-108.19 179.264 221.968-141.431z" fill="#1f6b4d" stroke="#1f6b4d"/><path d="M1145.016 954.208l-221.968 141.431 211.339 68.032z" fill="#1d6047" stroke="#1d6047"/><path d="M1145.016 954.208l-10.63 209.464 97.673-8.398z" fill="#19583d" stroke="#19583d"/><path d="M1145.016 954.208l87.044 201.066 26.41-195.95z" fill="#185d39" stroke="#185d39"/><path d="M1258.469 959.324l-26.41 195.95 173.068-47.595z" fill="#145331" stroke="#145331"/><path d="M1258.469 959.324l146.658 148.355-2.785-173.74z" fill="#12582c" stroke="#12582c"/><path d="M1402.342 933.939l2.785 173.74 191.839-154.886z" fill="#125322" stroke="#125322"/><path d="M1596.967 952.793l-191.839 154.886 220.224 41.016z" fill="#12461a" stroke="#12461a"/><path d="M1596.967 952.793l28.384 195.903 128.096-56.933z" fill="#12410f" stroke="#12410f"/><path d="M1596.967 952.793l156.48 138.97 11.867-155.912z" fill="#12460c" stroke="#12460c"/><path d="M1765.314 935.85l-11.867 155.912 87.487-21.433z" fill="#123e03" stroke="#123e03"/><path d="M1765.314 935.85l75.619 134.479 84.643-42.28z" fill="#123d00" stroke="#123d00"/><path d="M-67.47 1099.363l770.207 84.603-315.359-70.464z" fill="#707871" stroke="#707871"/><path d="M-67.47 1099.363l454.848 14.138-304.539-21.531z" fill="#818777" stroke="#818777"/><path d="M82.84 1091.97l304.539 21.531-107.88-24.862z" fill="#788174" stroke="#788174"/><path d="M387.378 1113.501l315.359 70.464-192.669-55.923z" fill="#576e6b" stroke="#576e6b"/><path d="M702.737 1183.965l922.615-35.27-490.965 14.976z" fill="#1a503f" stroke="#1a503f"/><path d="M702.737 1183.965l431.65-20.294-211.339-68.032z" fill="#2a5d54" stroke="#2a5d54"/><path d="M702.737 1183.965l220.311-88.326-111.301 13.828z" fill="#36645c" stroke="#36645c"/><path d="M1134.386 1163.672l490.965-14.976-393.292 6.579z" fill="#13472e" stroke="#13472e"/><path d="M1232.06 1155.274l393.292-6.579-220.224-41.016z" fill="#124525" stroke="#124525"/><path d="M1625.351 1148.695l215.582-78.366-87.487 21.433z" fill="#123807" stroke="#123807"/></svg>